Coordinates
version=1
nRows=14
nColumns=63
inDegrees=yes

Units are S.I. units (second, meters, Newtons, ...)
If the header above contains a line with 'inDegrees', this indicates whether rotational values are in degrees (yes) or radians (no).

endheader
time	pelvis_tilt	pelvis_list	pelvis_rotation	pelvis_tx	pelvis_ty	pelvis_tz	hip_flexion_r	hip_adduction_r	hip_rotation_r	knee_angle_r	knee_angle_r_beta	ankle_angle_r	subtalar_angle_r	mtp_angle_r	hip_flexion_l	hip_adduction_l	hip_rotation_l	knee_angle_l	knee_angle_l_beta	ankle_angle_l	subtalar_angle_l	mtp_angle_l	L5_S1_Flex_Ext	L5_S1_Lat_Bending	L5_S1_axial_rotation	L4_L5_Flex_Ext	L4_L5_Lat_Bending	L4_L5_axial_rotation	L3_L4_Flex_Ext	L3_L4_Lat_Bending	L3_L4_axial_rotation	L2_L3_Flex_Ext	L2_L3_Lat_Bending	L2_L3_axial_rotation	L1_L2_Flex_Ext	L1_L2_Lat_Bending	L1_L2_axial_rotation	L1_T12_Flex_Ext	L1_T12_Lat_Bending	L1_T12_axial_rotation	Abs_r3	Abs_r2	Abs_r1	Abs_t1	Abs_t2	neck_flexion	neck_bending	neck_rotation	arm_flex_r	arm_add_r	arm_rot_r	elbow_flex_r	pro_sup_r	wrist_flex_r	wrist_dev_r	arm_flex_l	arm_add_l	arm_rot_l	elbow_flex_l	pro_sup_l	wrist_flex_l	wrist_dev_l
8.106383	5.811705	-15.467444	101.609062	0.174568	0.576219	1.010086	39.650313	-0.399796	-2.859932	31.067749	0.542235	26.634472	-14.860058	0.000000	35.276305	-1.300675	2.231582	20.842541	0.363771	32.810996	1.241489	0.000000	0.115174	1.629554	0.643842	0.213889	2.167307	0.684082	0.189219	3.962099	0.684082	0.131632	3.962099	0.563361	0.106950	3.322987	0.523121	0.065810	2.524180	0.482881	0.822674	18.433845	3.580854	0.000000	0.000000	-17.378037	1.261779	-1.188019	34.646822	-6.384379	49.205535	45.137131	88.667440	-47.636924	-9.523664	25.724117	-4.879808	38.420625	148.080201	86.439158	-10.584330	5.072432
8.127660	5.432826	-15.692306	100.074881	0.172686	0.575357	1.008532	39.789291	-0.251261	-1.999027	31.085183	0.542539	26.774560	-14.312914	0.000000	35.102383	-1.281699	1.823857	20.729141	0.361792	32.802362	0.022642	0.000000	0.113011	1.639635	0.780859	0.209873	2.180714	0.829663	0.185666	3.986608	0.829663	0.129160	3.986608	0.683252	0.104942	3.343543	0.634448	0.064574	2.539794	0.585644	0.807226	18.547876	4.342903	0.000000	0.000000	-17.256060	0.549398	-1.002686	33.076676	-7.787470	44.092340	42.125944	88.591920	-48.365970	-9.219794	24.959902	-4.252940	38.088252	148.106189	86.173755	-10.018079	4.623455
8.148936	5.072319	-15.777184	98.573002	0.171426	0.574916	1.006468	39.648187	-0.054414	-1.240368	30.923795	0.539722	26.809716	-13.755496	0.000000	34.720571	-1.288698	1.632856	20.520503	0.358150	32.668308	-1.445431	0.000000	0.104301	1.627945	0.920369	0.193698	2.165167	0.977892	0.171357	3.958186	0.977892	0.119206	3.958186	0.805323	0.096854	3.319706	0.747800	0.059598	2.521687	0.690277	0.745015	18.415642	5.118815	0.000000	0.000000	-17.030279	0.081388	-1.142157	30.972435	-9.457602	37.978568	40.132215	88.541103	-48.012792	-8.556651	24.400724	-3.663059	38.063487	148.130378	85.980718	-9.507823	4.083571
8.170213	4.707756	-15.723201	97.096072	0.170942	0.575025	1.003845	39.188526	0.177372	-0.526235	30.554004	0.533268	26.728868	-13.207685	0.000000	34.081065	-1.339916	1.506356	20.165727	0.351958	32.413559	-2.971856	0.000000	0.092702	1.589636	1.065520	0.172156	2.114216	1.132114	0.152300	3.865041	1.132114	0.105949	3.865041	0.932330	0.086083	3.241586	0.865735	0.052970	2.462346	0.799140	0.662159	17.982280	5.926100	0.000000	0.000000	-16.765425	-0.134220	-1.628311	28.322454	-11.368155	30.925902	39.339325	88.547968	-46.655322	-7.371285	24.061173	-3.163204	38.325953	148.175516	85.895256	-8.947511	3.528957
8.191489	4.341645	-15.512878	95.677023	0.171243	0.575833	1.000696	38.371752	0.425854	0.101539	29.947858	0.522689	26.519328	-12.618072	0.000000	33.132550	-1.419658	1.472995	19.608523	0.342233	31.999482	-4.570609	0.000000	0.079289	1.525663	1.207317	0.147247	2.029131	1.282774	0.130263	3.709496	1.282774	0.090619	3.709496	1.056402	0.073628	3.111131	0.980945	0.045306	2.363251	0.905487	0.566352	17.258600	6.714733	0.000000	0.000000	-16.457678	-0.123088	-2.430539	25.276029	-13.484127	23.159479	39.843916	88.605368	-44.457386	-5.519110	23.915517	-2.773628	38.809331	148.228850	85.915841	-8.248911	2.892161
8.212766	3.987149	-15.145556	94.366899	0.172324	0.577421	0.997126	37.195609	0.676675	0.588657	29.092894	0.507767	26.165229	-11.952619	0.000000	31.883784	-1.531419	1.493111	18.841643	0.328849	31.425838	-6.115290	0.000000	0.066481	1.436420	1.335091	0.123461	1.910439	1.418534	0.109221	3.492513	1.418534	0.075981	3.492513	1.168205	0.061734	2.929149	1.084761	0.037987	2.225015	1.001318	0.474865	16.249075	7.425375	0.000000	0.000000	-16.072681	0.065691	-3.573442	22.073085	-15.721085	15.208830	41.457426	88.690485	-42.539654	-3.726437	23.980599	-2.487413	39.417498	148.258327	86.035350	-7.405218	2.221532
8.234043	3.618617	-14.639350	93.177001	0.174187	0.579777	0.993279	35.701140	0.894467	0.949041	28.018264	0.489011	25.686710	-11.201292	0.000000	30.362164	-1.640600	1.546437	17.876707	0.312007	30.687421	-7.587038	0.000000	0.055464	1.319443	1.448690	0.103001	1.754859	1.539233	0.091121	3.208094	1.539233	0.063389	3.208094	1.267604	0.051503	2.690608	1.177060	0.031692	2.043817	1.086517	0.396171	14.925803	8.057178	0.000000	0.000000	-15.559257	0.392787	-5.018347	18.782787	-17.907529	7.222792	43.944656	88.770617	-41.113887	-2.279335	24.311704	-2.307665	40.051756	148.237780	86.247971	-6.503333	1.547788
8.255319	3.243280	-14.013951	92.132515	0.176716	0.582844	0.989309	33.942657	1.061058	1.126558	26.757246	0.467002	25.107164	-10.278640	0.000000	28.620200	-1.739544	1.591616	16.747152	0.292293	29.816474	-8.900058	0.000000	0.047359	1.179082	1.547271	0.087951	1.568179	1.643975	0.077807	2.866819	1.643975	0.054127	2.866819	1.353862	0.043978	2.404383	1.257157	0.027061	1.826397	1.160453	0.338283	13.338007	8.605456	0.000000	0.000000	-14.858438	0.799125	-6.634044	15.384499	-19.994110	-0.716272	47.122557	88.818846	-40.316667	-1.136005	24.915807	-2.209086	40.609876	148.149974	86.549294	-5.636664	0.873717
8.276596	2.870627	-13.297474	91.238533	0.179775	0.586516	0.985358	31.987231	1.169354	1.111312	25.345968	0.442371	24.455670	-9.169222	0.000000	26.723100	-1.821645	1.622642	15.497188	0.270477	28.834456	-10.052558	0.000000	0.042891	1.021691	1.634110	0.079653	1.358850	1.736241	0.070466	2.484141	1.736241	0.049020	2.484141	1.429846	0.039829	2.083433	1.327714	0.024508	1.582600	1.225582	0.306368	11.557578	9.088427	0.000000	0.000000	-13.887775	1.187741	-8.270399	11.836873	-21.931509	-8.635553	50.845827	88.817086	-40.000709	-0.132829	25.787377	-2.161864	41.033996	148.018079	86.929821	-4.945066	0.355568
8.297872	2.538900	-12.509079	90.497594	0.183162	0.590684	0.981532	29.890742	1.243181	0.921267	23.810634	0.415574	23.733006	-7.911140	0.000000	24.733537	-1.913946	1.580610	14.177314	0.247441	27.791276	-10.949982	0.000000	0.042438	0.859051	1.699830	0.078812	1.142538	1.806070	0.069722	2.088697	1.806070	0.048503	2.088697	1.487352	0.039408	1.751777	1.381112	0.024249	1.330670	1.274873	0.303134	9.717758	9.453947	0.000000	0.000000	-12.610072	1.503741	-9.690082	8.241016	-23.732440	-16.304738	54.868356	88.785180	-40.256258	0.814024	26.847311	-2.179626	41.288263	147.867349	87.365606	-4.674692	-0.034352
8.319149	2.267616	-11.687892	89.946624	0.186637	0.595142	0.977828	27.701900	1.286953	0.535804	22.143585	0.386478	22.974790	-6.501240	0.000000	22.741112	-2.023963	1.494539	12.852075	0.224311	26.741415	-11.560958	0.000000	0.050281	0.698350	1.753617	0.093377	0.928805	1.863218	0.082607	1.697967	1.863218	0.057466	1.697967	1.534415	0.046691	1.424075	1.424814	0.028731	1.081744	1.315212	0.359154	7.899870	9.753090	0.000000	0.000000	-11.049007	1.682611	-10.969298	4.476565	-25.365715	-23.674075	59.001507	88.728472	-40.796603	1.675606	28.025277	-2.222382	41.362915	147.656072	87.816166	-4.766660	-0.249047
8.340426	2.089750	-10.832768	89.492044	0.190105	0.599760	0.974304	25.467775	1.338537	0.003599	20.393816	0.355939	22.192196	-4.891630	0.000000	20.756847	-2.184043	1.342416	11.544310	0.201486	25.713386	-11.961580	0.000000	0.064856	0.549198	1.811590	0.120444	0.730434	1.924814	0.106552	1.335320	1.924814	0.074124	1.335320	1.585141	0.060225	1.119925	1.471917	0.037059	0.850708	1.358693	0.463258	6.212639	10.075520	0.000000	0.000000	-9.274193	1.704645	-12.095632	0.690476	-26.870382	-30.416483	63.034880	88.667340	-41.462286	2.567607	29.240095	-2.339664	41.313235	147.337876	88.253746	-5.480340	-0.425684
8.361702	2.030917	-9.968782	89.157186	0.193372	0.604396	0.971002	23.235934	1.420151	-0.587101	18.588748	0.324435	21.376825	-3.238363	0.000000	18.856016	-2.411750	1.103578	10.330525	0.180302	24.767866	-12.061790	0.000000	0.086811	0.419573	1.857232	0.161217	0.558033	1.973309	0.142622	1.020151	1.973309	0.099216	1.020151	1.625078	0.080613	0.855594	1.509001	0.049604	0.649919	1.392924	0.620083	4.746297	10.329369	0.000000	0.000000	-7.310984	1.598914	-12.943945	-2.822610	-28.361230	-36.050149	66.676150	88.591583	-42.511666	3.429812	30.316303	-2.555317	41.023053	146.924250	88.704537	-6.685308	-0.590951
8.382979	2.063876	-9.121843	88.909083	0.196341	0.608933	0.967953	21.069958	1.512353	-1.161145	16.805541	0.293312	20.529203	-1.601281	0.000000	17.071338	-2.669654	0.794854	9.247858	0.161406	23.901865	-11.936218	0.000000	0.113817	0.307909	1.885883	0.211369	0.409519	2.003750	0.186989	0.748651	2.003750	0.130081	0.748651	1.650147	0.105690	0.627889	1.532280	0.065035	0.476951	1.414412	0.812981	3.483131	10.488713	0.000000	0.000000	-5.148836	1.423640	-13.517093	-5.789175	-29.882239	-40.332932	69.633563	88.494518	-44.024551	4.144777	31.140205	-2.878947	40.402964	146.438692	89.298461	-8.197326	-0.666504
